PathFileType  4	(X/Y/Z) C:\Inversekin\DARPA\DARPA11\Files_W_HJCs\
DataRate	CameraRate	NumFrames	NumMarkers	Units	OrigDataRate	OrigDataStartFrame	OrigNumFrames
  100.0		  100.0		    5		     41		 mm	  100.0	      90	    238
Frame#	Time	R.Shoulder			L.Shoulder			R.Clavicle			L.Clavicle			R.Biceps			R.Elbow			R.Forearm			R.Wrist			L.Biceps			L.Elbow			L.Forearm			L.Wrist			R.ASIS			L.ASIS			R.PSIS			S2			L.PSIS			R.TH1			R.TH2			R.TH3			R.Knee			R.SH1			R.SH2			R.SH3			R.SH4			R.Ankle			R.Heel			R.MT5			R.Toe			L.TH1			L.TH2			L.TH3			L.TH4			L.Knee			L.SH1			L.SH2			L.SH3			L.Ankle			L.Heel			L.MT5			L.Toe			
		X1	Y1	Z1	X2	Y2	Z2	X3	Y3	Z3	X4	Y4	Z4	X5	Y5	Z5	X6	Y6	Z6	X7	Y7	Z7	X8	Y8	Z8	X9	Y9	Z9	X10	Y10	Z10	X11	Y11	Z11	X12	Y12	Z12	X13	Y13	Z13	X14	Y14	Z14	X15	Y15	Z15	X16	Y16	Z16	X17	Y17	Z17	X18	Y18	Z18	X19	Y19	Z19	X20	Y20	Z20	X21	Y21	Z21	X22	Y22	Z22	X23	Y23	Z23	X24	Y24	Z24	X25	Y25	Z25	X26	Y26	Z26	X27	Y27	Z27	X28	Y28	Z28	X29	Y29	Z29	X30	Y30	Z30	X31	Y31	Z31	X32	Y32	Z32	X33	Y33	Z33	X34	Y34	Z34	X35	Y35	Z35	X36	Y36	Z36	X37	Y37	Z37	X38	Y38	Z38	X39	Y39	Z39	X40	Y40	Z40	X41	Y41	Z41	

90	0.89000	487.208	1495.599	-73.662	472.138	1498.799	-417.698	544.401	1454.542	-221.502	543.224	1454.660	-272.159	544.061	1242.253	8.043	509.740	1147.968	48.227	634.960	1064.362	53.586	719.533	975.865	55.774	436.920	1276.105	-500.175	383.753	1162.211	-519.811	428.351	1031.580	-549.019	452.260	917.172	-555.183	573.536	982.473	-107.805	571.559	995.094	-364.375	362.998	989.474	-196.250	351.951	963.154	-238.566	361.829	982.699	-286.620	489.672	748.351	-49.947	381.768	755.802	-46.386	360.171	634.434	-85.085	372.680	500.308	-103.923	337.451	405.556	-100.663	276.542	311.523	-102.341	264.833	447.459	-99.914	199.538	346.587	-106.841	137.844	149.864	-137.081	36.193	93.667	-186.662	212.929	34.638	-97.415	327.781	46.565	-197.152	664.437	812.837	-384.161	705.082	690.572	-360.752	581.207	786.252	-446.676	608.514	655.127	-415.159	673.469	528.187	-366.518	730.135	431.564	-355.428	639.311	418.506	-388.702	659.234	303.640	-381.982	775.757	120.268	-355.483	723.342	22.601	-315.515	903.801	85.606	-387.329	988.848	139.631	-289.923
91	0.90000	500.514	1495.260	-76.022	485.803	1498.069	-420.269	558.091	1454.446	-223.778	556.869	1454.406	-274.582	556.686	1242.028	6.457	521.640	1147.740	46.330	646.236	1063.473	52.493	730.088	974.305	55.198	451.036	1275.107	-502.218	397.884	1161.057	-521.315	442.908	1030.425	-549.906	466.573	915.923	-555.721	587.851	981.915	-108.837	587.290	994.692	-365.608	377.215	989.032	-198.509	366.706	962.828	-240.729	377.220	982.233	-288.804	504.732	747.733	-51.101	396.627	754.926	-48.375	376.197	633.174	-86.519	388.877	499.352	-103.748	351.091	405.571	-100.087	287.282	313.220	-101.747	279.750	449.696	-100.220	211.420	350.515	-106.834	144.097	155.709	-135.911	40.614	103.610	-186.537	213.506	34.953	-96.945	328.102	46.315	-196.963	679.681	811.630	-384.869	719.192	688.727	-361.051	597.010	786.052	-447.469	621.373	654.782	-415.005	684.178	526.952	-367.621	741.996	430.730	-356.282	650.890	417.448	-388.106	671.510	302.448	-381.374	785.883	118.781	-356.137	726.098	25.306	-315.992	910.148	77.596	-385.324	997.337	127.794	-287.727
92	0.91000	513.431	1495.400	-78.338	499.771	1497.635	-422.891	571.291	1454.532	-226.187	571.047	1454.661	-276.930	568.848	1241.702	4.752	533.172	1147.845	44.271	656.869	1062.374	51.273	740.262	972.672	54.577	464.900	1274.533	-504.272	412.390	1160.199	-522.945	457.388	1029.501	-551.049	481.525	915.119	-556.166	602.565	981.855	-109.624	603.216	994.262	-366.177	392.221	988.927	-200.710	381.628	963.207	-243.510	392.741	982.366	-291.384	520.112	747.642	-52.121	411.963	754.127	-50.478	392.901	631.928	-87.949	405.751	498.672	-103.725	365.665	405.772	-99.234	299.077	315.222	-100.935	295.704	452.092	-100.471	224.485	355.008	-106.831	151.289	162.191	-134.909	46.477	114.768	-186.676	214.467	36.214	-96.730	328.415	46.096	-196.812	694.849	809.920	-386.130	732.063	686.581	-361.857	611.254	785.279	-448.425	631.475	654.099	-414.300	694.841	525.590	-370.028	754.462	430.583	-357.323	663.352	416.943	-389.125	684.626	302.110	-382.929	794.320	116.438	-357.565	727.297	27.676	-317.159	915.398	68.724	-384.335	1003.530	116.892	-285.702
93	0.92000	526.303	1495.655	-80.728	513.917	1497.530	-425.299	584.992	1455.033	-228.300	584.220	1454.994	-279.134	580.975	1241.962	2.757	544.810	1148.219	42.215	667.668	1061.478	50.250	750.283	971.191	53.937	479.558	1274.184	-506.278	427.107	1159.650	-524.629	472.731	1028.823	-552.075	497.355	914.540	-556.640	617.061	982.240	-110.338	619.475	994.362	-366.336	407.164	989.454	-203.433	397.106	963.444	-246.249	408.293	982.926	-294.245	536.799	747.628	-53.001	428.457	753.013	-52.759	410.901	630.394	-89.124	424.064	497.868	-103.044	381.397	406.118	-98.028	311.989	317.719	-99.762	312.858	454.655	-100.714	238.836	359.696	-107.061	159.756	169.011	-134.020	53.658	127.410	-187.294	215.555	37.758	-96.721	328.620	46.116	-196.700	708.990	807.958	-387.980	743.647	683.811	-362.739	625.208	784.250	-449.709	643.048	652.829	-415.684	706.047	524.591	-372.528	766.730	429.676	-358.660	675.868	416.965	-391.506	696.333	301.979	-386.063	799.853	113.916	-359.274	728.167	29.292	-317.546	918.815	61.378	-384.861	1009.130	106.173	-284.553
94	0.93000	538.946	1496.242	-83.107	527.771	1497.681	-427.633	597.966	1455.438	-230.584	597.810	1455.429	-281.441	592.684	1242.187	0.539	556.132	1148.773	40.113	678.050	1060.933	48.927	759.696	969.618	53.276	494.168	1274.174	-508.471	441.943	1159.418	-526.437	487.882	1028.643	-553.245	512.867	914.271	-557.204	631.664	982.428	-111.122	634.841	994.484	-366.641	422.521	989.809	-206.114	412.270	964.060	-249.194	423.363	983.812	-297.272	553.706	747.523	-53.802	444.810	752.309	-54.712	429.557	628.849	-89.972	443.607	497.084	-101.861	398.085	406.836	-96.133	325.971	320.626	-98.077	331.187	457.369	-101.076	254.218	364.904	-107.345	169.626	176.334	-133.297	62.562	140.974	-188.493	216.830	39.947	-96.907	328.838	46.161	-196.440	722.889	805.978	-389.949	755.567	681.100	-364.833	637.868	783.564	-451.295	654.118	651.712	-417.520	719.299	524.299	-374.207	778.844	427.743	-359.677	688.969	417.004	-394.457	706.308	301.627	-388.889	804.146	111.323	-360.384	729.682	30.028	-318.145	921.536	54.812	-385.422	1013.855	96.584	-285.146
